Coordinates
version=1
nRows=43
nColumns=12
inDegrees=yes

Units are S.I. units (second, meters, Newtons, ...)
Angles are in degrees

endheader
time	SC_y	SC_z	SC_x	AC_y	AC_z	AC_x	GH_y	GH_z	GH_yy	EL_x	PS_y
       0.0              -25.81         -0.728          34.78          40.57         -11.42          6.389         -142.6          2.674         -106.1          28.14          55.88
   0.02569              -25.81        -0.7248          34.78          40.57         -11.42          6.389         -142.6          2.678         -106.0          28.15          55.89
   0.05137              -25.81        -0.7213          34.78          40.57         -11.42          6.388         -142.6          2.683         -106.0          28.17           55.9
   0.07706               -25.8        -0.7177          34.78          40.58         -11.42          6.388         -142.6          2.689         -105.9          28.18          55.91
    0.1027               -25.8        -0.7138          34.78          40.58         -11.41          6.388         -142.6          2.694         -105.9           28.2          55.93
    0.1284               -25.8        -0.7097          34.78          40.58         -11.41          6.387         -142.6            2.7         -105.9          28.22          55.94
    0.1541               -25.8        -0.7052          34.77          40.58         -11.41          6.387         -142.6          2.706         -105.8          28.23          55.96
    0.1798              -25.79        -0.7005          34.77          40.58         -11.41          6.386         -142.6          2.713         -105.8          28.25          55.98
    0.2055              -25.79        -0.6955          34.77          40.58         -11.41          6.386         -142.6           2.72         -105.7          28.27           56.0
    0.2312              -25.79          -0.69          34.77          40.58          -11.4          6.385         -142.6          2.728         -105.7           28.3          56.02
    0.2569              -25.78        -0.6842          34.77          40.58          -11.4          6.384         -142.6          2.736         -105.6          28.32          56.04
    0.2825              -25.78        -0.6779          34.77          40.58          -11.4          6.384         -142.6          2.745         -105.5          28.34          56.06
    0.3082              -25.77        -0.6711          34.77          40.58         -11.39          6.383         -142.6          2.754         -105.5          28.37          56.08
    0.3339              -25.77        -0.6638          34.77          40.58         -11.39          6.382         -142.6          2.765         -105.4           28.4          56.11
    0.3596              -25.76        -0.6559          34.77          40.59         -11.39          6.381         -142.6          2.776         -105.3          28.43          56.14
    0.3853              -25.76        -0.6473          34.77          40.59         -11.38           6.38         -142.6          2.788         -105.2          28.47          56.17
     0.411              -25.75         -0.638          34.77          40.59         -11.38          6.379         -142.6          2.801         -105.1          28.51          56.21
    0.4366              -25.74        -0.6278          34.77          40.59         -11.37          6.378         -142.6          2.816         -105.0          28.55          56.24
    0.4623              -25.74        -0.6167          34.77          40.59         -11.37          6.377         -142.6          2.831         -104.9          28.59          56.28
     0.488              -25.73        -0.6046          34.77          40.59         -11.36          6.375         -142.5          2.849         -104.8          28.64          56.33
    0.5137              -25.72        -0.5913          34.77           40.6         -11.36          6.374         -142.5          2.867         -104.6           28.7          56.38
    0.5394              -25.71        -0.5766          34.77           40.6         -11.35          6.372         -142.5          2.888         -104.5          28.75          56.43
    0.5651               -25.7        -0.5604          34.77           40.6         -11.34           6.37         -142.5          2.911         -104.3          28.82          56.49
    0.5908              -25.69        -0.5424          34.77          40.61         -11.33          6.368         -142.5          2.937         -104.1          28.89          56.56
    0.6164              -25.68        -0.5224          34.76          40.61         -11.32          6.366         -142.5          2.965         -103.9          28.97          56.63
    0.6421              -25.66        -0.5001          34.76          40.61         -11.31          6.364         -142.5          2.996         -103.6          29.06          56.71
    0.6678              -25.64        -0.4752          34.76          40.62          -11.3          6.361         -142.5          3.032         -103.4          29.17          56.81
    0.6935              -25.63        -0.4471          34.76          40.62         -11.29          6.358         -142.5          3.071         -103.1          29.28          56.91
    0.7192               -25.6        -0.4153          34.76          40.63         -11.27          6.354         -142.5          3.116         -102.8          29.41          57.03
    0.7449              -25.58        -0.3793          34.76          40.63         -11.26           6.35         -142.5          3.167         -102.4          29.55          57.16
    0.7706              -25.55        -0.3382          34.75          40.64         -11.24          6.346         -142.5          3.226         -101.9          29.72          57.31
    0.7962              -25.52         -0.291          34.75          40.65         -11.22           6.34         -142.4          3.292         -101.4          29.91          57.48
    0.8219              -25.49        -0.2365          34.75          40.66         -11.19          6.334         -142.4           3.37         -100.9          30.13          57.68
    0.8476              -25.44        -0.1732          34.74          40.67         -11.16          6.327         -142.4          3.459         -100.2          30.39          57.92
    0.8733               -25.4       -0.09911          34.74          40.68         -11.13          6.319         -142.4          3.564         -99.41          30.69          58.19
     0.899              -25.34       -0.01177          34.74           40.7         -11.08          6.309         -142.3          3.688         -98.48          31.04          58.51
    0.9247              -25.27        0.09201          34.73          40.71         -11.04          6.298         -142.3          3.834         -97.39          31.46          58.89
    0.9503              -25.19         0.2164          34.72          40.73         -10.98          6.284         -142.3           4.01         -96.07          31.96          59.35
     0.976              -25.09         0.3669          34.71          40.76         -10.91          6.267         -142.2          4.223         -94.48          32.57           59.9
     1.002              -24.97         0.5508           34.7          40.79         -10.82          6.247         -142.1          4.484         -92.54          33.32          60.58
     1.027              -24.82         0.7777          34.69          40.83         -10.71          6.221         -142.0          4.805         -90.14          34.24          61.41
     1.053              -24.63          1.061          34.67          40.88         -10.58           6.19         -141.9          5.205         -87.15          35.38          62.45
     1.079              -24.39          1.417          34.65          40.94         -10.41           6.15         -141.8           5.71         -83.38          36.82          63.77
